# xmcd CD database file
#
# Track frame offsets:
#	182
#	11905
#	26167
#	36230
#	48652
#	62795
#	74322
#	89467
#	102525
#	114892
#	129742
#	144487
#	158792
#	171745
#	184360
#	195945
#	209175
#	229565
#
# Disc length: 3217 seconds
#
# Revision: 3
# Processed by: cddbd v1.5.1PL0 Copyright (c) Steve Scherf et al.
# Submitted via: CDex 1.51
#
DISCID=130c8f12
DTITLE=Merle Haggard - More Of The Best
DYEAR=1990
DGENRE=Country
TTITLE0=Sing A Sad Song
TTITLE1=Branded Man
TTITLE2=Mama Tried
TTITLE3=SIlver Wings
TTITLE4=White Line Fever
TTITLE5=Someday We'll Look Back
TTITLE6=It's Not Love-But It's Not Bad
TTITLE7=Everybody's Had the Blues
TTITLE8=If We Make It Through December
TTITLE9=It's All In the Movies
TTITLE10=If We're Not Back In Love By Monday
TTITLE11=Ramblin' Fever
TTITLE12=I'm Always On A Mountain When I Fall
TTITLE13=It's Been A Great Afternoon
TTITLE14=Red Bandana
TTITLE15=My Own Kind Of Hat
TTITLE16=I Think I'll Just Stay Here And Drink
TTITLE17=Rainbow Stew
EXTD=YEAR: 1990
EXTT0=
EXTT1=
EXTT2=
EXTT3=
EXTT4=
EXTT5=
EXTT6=
EXTT7=
EXTT8=
EXTT9=
EXTT10=
EXTT11=
EXTT12=
EXTT13=
EXTT14=
EXTT15=
EXTT16=
EXTT17=
PLAYORDER=
